<?xml version="1.0" encoding="utf-8"?>
<!-- Generator: Adobe Illustrator 15.1.0, SVG Export Plug-In . SVG Version: 6.00 Build 0)  -->
<!DOCTYPE svg PUBLIC "-//W3C//DTD SVG 1.1//EN" "http://www.w3.org/Graphics/SVG/1.1/DTD/svg11.dtd">
<svg version="1.1" id="Layer_1" xmlns="http://www.w3.org/2000/svg" xmlns:xlink="http://www.w3.org/1999/xlink" x="0px" y="0px"
	 width="171px" height="40px" viewBox="0 0 171 40" enable-background="new 0 0 171 40" xml:space="preserve">
<g>
	<path fill="#010101" d="M65.548,3.013l-3.715,9.617h8.575h0.484c1.732,0,3.304-1.086,3.905-2.702l3.686-9.618h-9.03h-0.029
		C67.707,0.296,66.136,1.397,65.548,3.013z M63.918,11.207c0.146-0.368,2.937-7.532,2.937-7.532
		c0.426-1.162,1.571-1.953,2.833-1.953c0,0,6.358,0,6.74,0c-0.146,0.367-2.923,7.532-2.923,7.532
		c-0.425,1.16-1.571,1.939-2.834,1.939h-0.382C70.289,11.192,65.02,11.207,63.918,11.207z"/>
	<path fill="#010101" d="M93.901,0.325l-3.686,9.618c-0.587,1.615-2.158,2.716-3.907,2.701h-0.484h-8.59l3.715-9.617
		c0.587-1.615,2.159-2.702,3.907-2.702H93.901z M85.091,1.735c-1.263,0-2.393,0.777-2.834,1.954c0,0-2.789,7.165-2.938,7.532
		c1.102,0,6.373,0,6.373,0h0.383c1.262,0,2.393-0.779,2.833-1.938c0,0,2.772-7.165,2.923-7.533
		C91.447,1.75,85.091,1.735,85.091,1.735z"/>
	<path fill="#010101" d="M100.124,0.325c-1.729,0-3.3,1.087-3.903,2.702l-3.713,9.617h8.59h0.482c1.734,0,3.304-1.086,3.907-2.701
		l3.684-9.618H100.124z M107.101,1.765c-0.146,0.368-2.923,7.532-2.923,7.532c-0.424,1.16-1.569,1.939-2.832,1.939h-0.38
		c0,0-5.992,0-6.372,0c0.146-0.367,2.933-7.532,2.933-7.532c0.425-1.161,1.573-1.954,2.836-1.954
		C100.362,1.75,106.72,1.75,107.101,1.765z"/>
</g>
<g>
	<polygon fill="#010101" points="2.32,29.322 2.32,16.917 5.375,16.917 5.375,27.003 15.109,27.003 15.109,29.322 	"/>
	<path fill="#010101" d="M21.248,26.93h9.983v-7.72h-9.983V26.93z M18.224,19.855c0-1.174,0.221-1.954,0.675-2.351
		c0.455-0.395,1.308-0.587,2.555-0.587h9.589c1.247,0,2.1,0.192,2.555,0.587c0.455,0.397,0.675,1.176,0.675,2.351v6.533
		c0,1.16-0.233,1.939-0.688,2.334c-0.456,0.396-1.309,0.601-2.541,0.601h-9.589c-1.247,0-2.1-0.205-2.555-0.601
		c-0.454-0.395-0.675-1.174-0.675-2.334V19.855"/>
	<path fill="#010101" d="M48.206,19.046h-6.887v3.45h6.887c0.926,0,1.381-0.337,1.381-0.998V20.06
		C49.587,19.385,49.117,19.046,48.206,19.046 M38.311,29.322V16.917h11.174c1.938,0,2.907,0.809,2.907,2.409v2.936
		c0,1.588-0.97,2.378-2.907,2.378H47.78l5.902,4.683h-4.346l-5.183-4.683h-2.85v4.683H38.311"/>
	<polygon fill="#010101" points="57.397,29.322 57.397,16.917 59.482,16.917 70.011,25.155 70.011,16.917 72.728,16.917 
		72.728,29.322 70.657,29.322 60.143,20.957 60.143,29.322 	"/>
	<path fill="#010101" d="M81.67,24.347h5.696l-2.906-5.168L81.67,24.347z M75.797,29.322l7.371-12.405h2.907l7.486,12.405h-3.403
		l-1.558-2.715h-8.224l-1.557,2.715H75.797"/>
	<path fill="#010101" d="M102.253,29.322c-1.243,0-2.114-0.205-2.567-0.601c-0.454-0.395-0.688-1.174-0.688-2.334v-2.583
		l3.036-0.559v3.757h5.934V16.917h3.04v9.471c0,1.16-0.238,1.939-0.691,2.334c-0.453,0.396-1.307,0.601-2.568,0.601H102.253"/>
	<path fill="#010101" d="M119.978,24.347h5.696l-2.905-5.168L119.978,24.347z M114.106,29.322l7.367-12.405h2.908l7.488,12.405
		h-3.405l-1.555-2.715h-8.224l-1.559,2.715H114.106"/>
	<polygon fill="#010101" points="134.939,29.322 134.939,16.917 137.025,16.917 147.567,25.155 147.567,16.917 150.286,16.917 
		150.286,29.322 148.2,29.322 137.702,20.957 137.702,29.322 	"/>
	<polygon fill="#010101" points="155.232,29.322 155.232,16.917 168.533,16.917 168.533,19.12 158.271,19.12 158.271,21.82 
		164.261,21.82 164.261,23.951 158.271,23.951 158.271,27.003 168.68,27.003 168.68,29.322 	"/>
</g>
<g>
	<path fill="#010101" d="M38.721,39.675l3.407-6.241h1.116l3.464,6.241h-1.146l-0.791-1.525h-4.215l-0.794,1.525H38.721z
		 M40.983,37.355h3.361l-1.674-3.201L40.983,37.355z"/>
	<path fill="#010101" d="M54.021,34.275h-4.332v4.536h4.332v-1.559l1.042,0.219v0.736c0,0.589-0.103,0.969-0.309,1.174
		c-0.205,0.205-0.588,0.308-1.146,0.308h-3.493c-0.559,0-0.955-0.103-1.16-0.308c-0.206-0.205-0.31-0.585-0.31-1.159v-3.289
		c0-0.57,0.104-0.969,0.31-1.174c0.205-0.209,0.587-0.312,1.16-0.312h3.493c0.558,0,0.955,0.103,1.146,0.297
		c0.206,0.205,0.309,0.588,0.309,1.174v0.585l-1.042,0.19V34.275"/>
	<polygon fill="#010101" points="60.219,34.29 60.219,39.675 59.176,39.675 59.176,34.29 56.325,34.29 56.325,33.434 63.081,33.434 
		63.081,34.29 	"/>
	<rect x="64.827" y="33.434" fill="#010101" width="1.043" height="6.241"/>
	<polygon fill="#010101" points="71.303,39.675 67.882,33.434 69.013,33.434 71.772,38.636 74.401,33.434 75.429,33.434 
		72.17,39.675 	"/>
	<polygon fill="#010101" points="77.456,39.675 77.456,33.434 83.461,33.434 83.461,34.275 78.483,34.275 78.483,36.005 
		81.521,36.005 81.521,36.829 78.483,36.829 78.483,38.826 83.505,38.826 83.505,39.675 	"/>
	<polygon fill="#010101" points="90.509,39.675 90.509,33.434 91.534,33.434 91.534,38.812 96.266,38.812 96.266,39.675 	"/>
	<rect x="98.395" y="33.434" fill="#010101" width="1.042" height="6.241"/>
	<polygon fill="#010101" points="104.854,39.675 101.449,33.434 102.579,33.434 105.326,38.636 107.968,33.434 108.995,33.434 
		105.722,39.675 	"/>
	<rect x="111.008" y="33.434" fill="#010101" width="1.027" height="6.241"/>
	<path fill="#010101" d="M115.295,39.675v-6.241h0.647l4.668,4.171c0.22,0.204,0.469,0.472,0.702,0.793
		c-0.058-0.38-0.103-0.896-0.103-1.539v-3.425h0.955v6.241h-0.588l-4.801-4.346c-0.176-0.161-0.277-0.249-0.308-0.278
		c-0.131-0.132-0.233-0.264-0.321-0.425c0.059,0.366,0.073,0.82,0.073,1.364v3.67h-0.926"/>
	<path fill="#010101" d="M131.256,34.275h-4.892v4.536h4.892v-1.836h-2.524v-0.795h3.563v2.027c0,0.574-0.103,0.969-0.308,1.159
		c-0.204,0.205-0.585,0.308-1.156,0.308h-4.038c-0.56,0-0.943-0.103-1.163-0.308c-0.204-0.204-0.308-0.585-0.308-1.159v-3.289
		c0-0.57,0.104-0.969,0.308-1.174c0.205-0.209,0.589-0.312,1.163-0.312h4.038c0.542,0,0.923,0.103,1.143,0.297
		c0.219,0.19,0.321,0.56,0.321,1.101v0.161l-1.039,0.204V34.275"/>
</g>
</svg>
